<mxfile host="app.diagrams.net" agent="Mozilla/5.0 (Windows NT 10.0; Win64; x64) AppleWebKit/537.36 (KHTML, like Gecko) Chrome/128.0.0.0 Safari/537.36" version="24.7.8">
  <diagram name="Page-1" id="cajwBeSXNfVDywJmZE5A">
    <mxGraphModel dx="954" dy="605" grid="1" gridSize="10" guides="1" tooltips="1" connect="1" arrows="1" fold="1" page="1" pageScale="1" pageWidth="850" pageHeight="1100" math="0" shadow="0">
      <root>
        <mxCell id="0" />
        <mxCell id="1" parent="0" />
        <mxCell id="4VmVAdeePWyVjQhq9N3H-5" style="edgeStyle=orthogonalEdgeStyle;rounded=0;orthogonalLoop=1;jettySize=auto;html=1;exitX=0.5;exitY=1;exitDx=0;exitDy=0;entryX=0.5;entryY=0;entryDx=0;entryDy=0;" parent="1" source="4VmVAdeePWyVjQhq9N3H-1" target="4VmVAdeePWyVjQhq9N3H-3" edge="1">
          <mxGeometry relative="1" as="geometry" />
        </mxCell>
        <mxCell id="4VmVAdeePWyVjQhq9N3H-20" value="enable" style="edgeLabel;html=1;align=center;verticalAlign=middle;resizable=0;points=[];" parent="4VmVAdeePWyVjQhq9N3H-5" vertex="1" connectable="0">
          <mxGeometry x="-0.0523" relative="1" as="geometry">
            <mxPoint as="offset" />
          </mxGeometry>
        </mxCell>
        <mxCell id="4VmVAdeePWyVjQhq9N3H-1" value="User EXEC&lt;div&gt;mode&lt;/div&gt;" style="rounded=1;whiteSpace=wrap;html=1;" parent="1" vertex="1">
          <mxGeometry x="352" y="100" width="117" height="60" as="geometry" />
        </mxCell>
        <mxCell id="4VmVAdeePWyVjQhq9N3H-10" style="edgeStyle=orthogonalEdgeStyle;rounded=0;orthogonalLoop=1;jettySize=auto;html=1;exitX=0.5;exitY=1;exitDx=0;exitDy=0;entryX=0.5;entryY=0;entryDx=0;entryDy=0;" parent="1" source="4VmVAdeePWyVjQhq9N3H-3" target="4VmVAdeePWyVjQhq9N3H-8" edge="1">
          <mxGeometry relative="1" as="geometry" />
        </mxCell>
        <mxCell id="4VmVAdeePWyVjQhq9N3H-21" value="configure terminal" style="edgeLabel;html=1;align=center;verticalAlign=middle;resizable=0;points=[];" parent="4VmVAdeePWyVjQhq9N3H-10" vertex="1" connectable="0">
          <mxGeometry x="-0.22" relative="1" as="geometry">
            <mxPoint as="offset" />
          </mxGeometry>
        </mxCell>
        <mxCell id="4VmVAdeePWyVjQhq9N3H-18" style="edgeStyle=orthogonalEdgeStyle;rounded=0;orthogonalLoop=1;jettySize=auto;html=1;exitX=1;exitY=0.5;exitDx=0;exitDy=0;entryX=1;entryY=0.5;entryDx=0;entryDy=0;" parent="1" source="4VmVAdeePWyVjQhq9N3H-3" target="4VmVAdeePWyVjQhq9N3H-1" edge="1">
          <mxGeometry relative="1" as="geometry" />
        </mxCell>
        <mxCell id="4VmVAdeePWyVjQhq9N3H-19" value="disable" style="edgeLabel;html=1;align=center;verticalAlign=middle;resizable=0;points=[];" parent="4VmVAdeePWyVjQhq9N3H-18" vertex="1" connectable="0">
          <mxGeometry x="0.0383" relative="1" as="geometry">
            <mxPoint as="offset" />
          </mxGeometry>
        </mxCell>
        <mxCell id="4VmVAdeePWyVjQhq9N3H-3" value="Privileged EXEC&lt;div&gt;&lt;span style=&quot;background-color: initial;&quot;&gt;mode&lt;/span&gt;&lt;/div&gt;" style="rounded=1;whiteSpace=wrap;html=1;" parent="1" vertex="1">
          <mxGeometry x="350" y="200" width="120" height="60" as="geometry" />
        </mxCell>
        <mxCell id="4VmVAdeePWyVjQhq9N3H-6" value="Line Config mode" style="rounded=1;whiteSpace=wrap;html=1;" parent="1" vertex="1">
          <mxGeometry x="40" y="520" width="120" height="60" as="geometry" />
        </mxCell>
        <mxCell id="4VmVAdeePWyVjQhq9N3H-7" value="Interface Config mode" style="rounded=1;whiteSpace=wrap;html=1;" parent="1" vertex="1">
          <mxGeometry x="520" y="520" width="120" height="60" as="geometry" />
        </mxCell>
        <mxCell id="4VmVAdeePWyVjQhq9N3H-14" style="edgeStyle=orthogonalEdgeStyle;rounded=0;orthogonalLoop=1;jettySize=auto;html=1;exitX=0.5;exitY=1;exitDx=0;exitDy=0;entryX=0.5;entryY=0;entryDx=0;entryDy=0;" parent="1" source="4VmVAdeePWyVjQhq9N3H-8" target="4VmVAdeePWyVjQhq9N3H-13" edge="1">
          <mxGeometry relative="1" as="geometry" />
        </mxCell>
        <mxCell id="4VmVAdeePWyVjQhq9N3H-26" style="edgeStyle=orthogonalEdgeStyle;rounded=0;orthogonalLoop=1;jettySize=auto;html=1;exitX=1;exitY=0.5;exitDx=0;exitDy=0;entryX=1;entryY=0.5;entryDx=0;entryDy=0;" parent="1" source="4VmVAdeePWyVjQhq9N3H-8" target="4VmVAdeePWyVjQhq9N3H-1" edge="1">
          <mxGeometry relative="1" as="geometry">
            <Array as="points">
              <mxPoint x="520" y="330" />
              <mxPoint x="520" y="130" />
            </Array>
          </mxGeometry>
        </mxCell>
        <mxCell id="4VmVAdeePWyVjQhq9N3H-27" value="exit" style="edgeLabel;html=1;align=center;verticalAlign=middle;resizable=0;points=[];" parent="4VmVAdeePWyVjQhq9N3H-26" vertex="1" connectable="0">
          <mxGeometry x="-0.0059" y="1" relative="1" as="geometry">
            <mxPoint as="offset" />
          </mxGeometry>
        </mxCell>
        <mxCell id="4VmVAdeePWyVjQhq9N3H-8" value="Global Config mode" style="rounded=1;whiteSpace=wrap;html=1;" parent="1" vertex="1">
          <mxGeometry x="350" y="300" width="120" height="60" as="geometry" />
        </mxCell>
        <mxCell id="4VmVAdeePWyVjQhq9N3H-16" style="edgeStyle=orthogonalEdgeStyle;rounded=0;orthogonalLoop=1;jettySize=auto;html=1;exitX=0.5;exitY=1;exitDx=0;exitDy=0;entryX=0.5;entryY=0;entryDx=0;entryDy=0;" parent="1" source="4VmVAdeePWyVjQhq9N3H-13" target="4VmVAdeePWyVjQhq9N3H-6" edge="1">
          <mxGeometry relative="1" as="geometry" />
        </mxCell>
        <mxCell id="4VmVAdeePWyVjQhq9N3H-22" value="line &amp;lt;management line type&amp;gt; &amp;lt;number&amp;gt;" style="edgeLabel;html=1;align=center;verticalAlign=middle;resizable=0;points=[];" parent="4VmVAdeePWyVjQhq9N3H-16" vertex="1" connectable="0">
          <mxGeometry x="-0.023" y="-1" relative="1" as="geometry">
            <mxPoint as="offset" />
          </mxGeometry>
        </mxCell>
        <mxCell id="4VmVAdeePWyVjQhq9N3H-17" style="edgeStyle=orthogonalEdgeStyle;rounded=0;orthogonalLoop=1;jettySize=auto;html=1;exitX=0.5;exitY=1;exitDx=0;exitDy=0;entryX=0.5;entryY=0;entryDx=0;entryDy=0;" parent="1" source="4VmVAdeePWyVjQhq9N3H-13" target="4VmVAdeePWyVjQhq9N3H-7" edge="1">
          <mxGeometry relative="1" as="geometry" />
        </mxCell>
        <mxCell id="4VmVAdeePWyVjQhq9N3H-23" value="interface &amp;lt;type&amp;gt;" style="edgeLabel;html=1;align=center;verticalAlign=middle;resizable=0;points=[];" parent="4VmVAdeePWyVjQhq9N3H-17" vertex="1" connectable="0">
          <mxGeometry x="0.2153" y="-1" relative="1" as="geometry">
            <mxPoint as="offset" />
          </mxGeometry>
        </mxCell>
        <mxCell id="4VmVAdeePWyVjQhq9N3H-24" style="edgeStyle=orthogonalEdgeStyle;rounded=0;orthogonalLoop=1;jettySize=auto;html=1;exitX=1;exitY=0.5;exitDx=0;exitDy=0;entryX=1;entryY=0.5;entryDx=0;entryDy=0;" parent="1" source="4VmVAdeePWyVjQhq9N3H-13" target="4VmVAdeePWyVjQhq9N3H-1" edge="1">
          <mxGeometry relative="1" as="geometry">
            <Array as="points">
              <mxPoint x="560" y="410" />
              <mxPoint x="560" y="130" />
            </Array>
          </mxGeometry>
        </mxCell>
        <mxCell id="4VmVAdeePWyVjQhq9N3H-25" value="end OR [ctrl+z]" style="edgeLabel;html=1;align=center;verticalAlign=middle;resizable=0;points=[];" parent="4VmVAdeePWyVjQhq9N3H-24" vertex="1" connectable="0">
          <mxGeometry x="0.0018" y="-1" relative="1" as="geometry">
            <mxPoint as="offset" />
          </mxGeometry>
        </mxCell>
        <mxCell id="4VmVAdeePWyVjQhq9N3H-30" style="edgeStyle=orthogonalEdgeStyle;rounded=0;orthogonalLoop=1;jettySize=auto;html=1;exitX=0;exitY=0.5;exitDx=0;exitDy=0;entryX=0;entryY=0.5;entryDx=0;entryDy=0;" parent="1" source="4VmVAdeePWyVjQhq9N3H-13" target="4VmVAdeePWyVjQhq9N3H-8" edge="1">
          <mxGeometry relative="1" as="geometry" />
        </mxCell>
        <mxCell id="4VmVAdeePWyVjQhq9N3H-31" value="exit" style="edgeLabel;html=1;align=center;verticalAlign=middle;resizable=0;points=[];" parent="4VmVAdeePWyVjQhq9N3H-30" vertex="1" connectable="0">
          <mxGeometry x="0.0785" relative="1" as="geometry">
            <mxPoint as="offset" />
          </mxGeometry>
        </mxCell>
        <mxCell id="4VmVAdeePWyVjQhq9N3H-13" value="subconfig mode" style="rounded=1;whiteSpace=wrap;html=1;glass=0;" parent="1" vertex="1">
          <mxGeometry x="352" y="380" width="120" height="60" as="geometry" />
        </mxCell>
        <mxCell id="4VmVAdeePWyVjQhq9N3H-32" value="&lt;font style=&quot;font-size: 9px;&quot;&gt;&lt;b&gt;exit&lt;/b&gt; =&amp;nbsp;&lt;/font&gt;&lt;div style=&quot;font-size: 9px;&quot;&gt;&lt;font style=&quot;font-size: 9px;&quot;&gt;to move one step above in the hierarchy of global config mode.&lt;/font&gt;&lt;/div&gt;" style="text;html=1;align=center;verticalAlign=middle;whiteSpace=wrap;rounded=0;" parent="1" vertex="1">
          <mxGeometry x="150" y="330" width="150" height="30" as="geometry" />
        </mxCell>
      </root>
    </mxGraphModel>
  </diagram>
</mxfile>
